<svg xmlns="http://www.w3.org/2000/svg" viewBox="0 0 48 48">
  <path d="M9.5 7C6.4802259 7 4 9.4802259 4 12.5L4 35.5C4 38.519774 6.4802259 41 9.5 41L38.5 41C41.519774 41 44 38.519774 44 35.5L44 12.5C44 9.4802259 41.519774 7 38.5 7L9.5 7 z M 9.5 10L38.5 10C39.898226 10 41 11.101774 41 12.5L41 35.5C41 36.898226 39.898226 38 38.5 38L9.5 38C8.1017741 38 7 36.898226 7 35.5L7 12.5C7 11.101774 8.1017741 10 9.5 10 z M 16 18C15.487 18 15.026891 18.313016 14.837891 18.791016L11.087891 28.291016C10.834891 28.933016 11.149016 29.658109 11.791016 29.912109C12.435016 30.166109 13.158109 29.850984 13.412109 29.208984L13.792969 28.25L18.210938 28.25L18.589844 29.208984C18.781844 29.700984 19.252953 30 19.751953 30C19.903953 30 20.058984 29.972109 20.208984 29.912109C20.850984 29.659109 21.165109 28.933016 20.912109 28.291016L17.162109 18.791016C16.973109 18.313016 16.513 18 16 18 z M 24.25 18C23.56 18 23 18.56 23 19.25L23 28.75C23 29.44 23.56 30 24.25 30C24.94 30 25.5 29.44 25.5 28.75L25.5 27L27.5 27C29.981 27 32 24.981 32 22.5C32 20.019 29.981 18 27.5 18L24.25 18 z M 35.25 18C34.56 18 34 18.56 34 19.25L34 28.75C34 29.44 34.56 30 35.25 30C35.94 30 36.5 29.44 36.5 28.75L36.5 19.25C36.5 18.56 35.94 18 35.25 18 z M 25.5 20.5L27.5 20.5C28.603 20.5 29.5 21.397 29.5 22.5C29.5 23.603 28.603 24.5 27.5 24.5L25.5 24.5L25.5 20.5 z M 16 22.654297L17.222656 25.75L14.777344 25.75L16 22.654297 z" fill="#FFFFFF" />
</svg>