<svg xmlns="http://www.w3.org/2000/svg" viewBox="0 0 32 32">
  <path d="M16.585938 3L3.5859375 16L4.2929688 16.707031L8 20.414062L25.414062 3L16.585938 3 z M 17.414062 5L20.585938 5L8 17.585938L6.4140625 16L17.414062 5 z M 16.585938 15L9.5859375 22L10.292969 22.707031L13.292969 25.707031L14 26.414062L16.585938 29L25.414062 29L18.414062 22L25.414062 15L16.585938 15 z M 17.414062 17L20.585938 17L14 23.585938L12.414062 22L17.414062 17 z M 17 23.414062L20.585938 27L17.414062 27L15.414062 25L17 23.414062 z" fill="#FFFFFF" />
</svg>