<svg xmlns="http://www.w3.org/2000/svg" viewBox="0 0 50 50">
  <path d="M27 3 A 1.0001 1.0001 0 0 0 26.292969 3.2929688L5.2929688 24.292969 A 1.0001 1.0001 0 0 0 5.2929688 25.707031L11.292969 31.707031 A 1.0001 1.0001 0 0 0 12.707031 31.707031L39.707031 4.7070312 A 1.0001 1.0001 0 0 0 39 3L27 3 z M 27.414062 5L36.585938 5L12 29.585938L7.4140625 25L27.414062 5 z M 28 22 A 1.0001 1.0001 0 0 0 27.292969 22.292969L15.292969 34.292969 A 1.0001 1.0001 0 0 0 15.292969 35.707031L21.292969 41.707031L27.292969 47.707031 A 1.0001 1.0001 0 0 0 28 48L40 48 A 1.0001 1.0001 0 0 0 40.707031 46.292969L29.414062 35L40.707031 23.707031 A 1.0001 1.0001 0 0 0 40 22L28 22 z M 28.414062 24L37.585938 24L22 39.585938L17.414062 35L28.414062 24 z M 28 36.414062L37.585938 46L28.414062 46L23.414062 41L28 36.414062 z" fill="#FFFFFF" />
</svg>