<svg xmlns="http://www.w3.org/2000/svg" viewBox="0 0 64 64">
  <path d="M50 0.28125C45.382813 0.28125 41.289063 2.539063 38.738281 6L13 6C9.140625 6 6 9.140625 6 13L6 51C6 51.117188 6.011719 51.234375 6.015625 51.351563C6.007813 51.4375 6.015625 51.515625 6.03125 51.597656C6.320313 54.980469 9.019531 57.679688 12.402344 57.96875C12.453125 57.976563 12.503906 58 12.558594 58C12.585938 58 12.617188 57.984375 12.648438 57.980469C12.765625 57.988281 12.882813 58 13 58L51 58C54.859375 58 58 54.859375 58 51L58 28.332031C58 28.316406 57.992188 28.304688 57.988281 28.285156C61.097656 23.628906 64 19.214844 64 14.28125C64 6.5625 57.71875 0.28125 50 0.28125 Z M 50 2.28125C56.617188 2.28125 62 7.664063 62 14.28125C62 18.675781 59.183594 22.898438 56.199219 27.371094C53.820313 30.929688 51.382813 34.582031 50 38.710938C48.613281 34.582031 46.179688 30.929688 43.800781 27.367188C40.820313 22.898438 38 18.679688 38 14.28125C38 7.664063 43.382813 2.28125 50 2.28125 Z M 13 8L37.503906 8C36.550781 9.890625 36 12.019531 36 14.28125C36 16.214844 36.449219 18.066406 37.175781 19.886719C37.144531 19.910156 37.105469 19.921875 37.078125 19.953125L8 49.03125L8 13C8 10.242188 10.242188 8 13 8 Z M 48.605469 8.234375C48.472656 8.21875 48.339844 8.234375 48.207031 8.273438C45.691406 9.058594 44 11.359375 44 14C44 17.308594 46.691406 20 50 20C53.308594 20 56 17.308594 56 14C56 13.445313 55.550781 13 55 13C54.449219 13 54 13.445313 54 14C54 16.207031 52.207031 18 50 18C47.792969 18 46 16.207031 46 14C46 12.238281 47.125 10.707031 48.804688 10.183594C49.332031 10.015625 49.625 9.453125 49.460938 8.929688C49.335938 8.53125 48.992188 8.269531 48.605469 8.234375 Z M 51.824219 8.351563C51.433594 8.355469 51.070313 8.597656 50.917969 8.984375C50.714844 9.496094 50.964844 10.078125 51.480469 10.28125C52.023438 10.5 52.523438 10.839844 52.925781 11.269531C53.121094 11.484375 53.390625 11.589844 53.65625 11.589844C53.902344 11.589844 54.144531 11.5 54.339844 11.320313C54.742188 10.941406 54.765625 10.308594 54.386719 9.90625C53.785156 9.261719 53.035156 8.75 52.21875 8.421875C52.089844 8.371094 51.953125 8.347656 51.824219 8.351563 Z M 12 12C11.449219 12 11 12.445313 11 13L11 15C11 15.554688 11.449219 16 12 16C12.550781 16 13 15.554688 13 15L13 13C13 12.445313 12.550781 12 12 12 Z M 17 12C16.449219 12 16 12.445313 16 13L16 15C16 15.554688 16.449219 16 17 16C17.550781 16 18 15.554688 18 15L18 13C18 12.445313 17.550781 12 17 12 Z M 22 12C21.449219 12 21 12.445313 21 13L21 15C21 15.554688 21.449219 16 22 16C22.550781 16 23 15.554688 23 15L23 13C23 12.445313 22.550781 12 22 12 Z M 27 12C26.449219 12 26 12.445313 26 13L26 15C26 15.554688 26.449219 16 27 16C27.550781 16 28 15.554688 28 15L28 13C28 12.445313 27.550781 12 27 12 Z M 32 12C31.449219 12 31 12.445313 31 13L31 15C31 15.554688 31.449219 16 32 16C32.550781 16 33 15.554688 33 15L33 13C33 12.445313 32.550781 12 32 12 Z M 50 12C48.894531 12 48 12.894531 48 14C48 15.105469 48.894531 16 50 16C51.105469 16 52 15.105469 52 14C52 12.894531 51.105469 12 50 12 Z M 18 18C14.691406 18 12 20.691406 12 24C12 27.308594 14.691406 30 18 30C21.308594 30 24 27.308594 24 24C24 23.445313 23.550781 23 23 23L19.25 23C18.699219 23 18.25 23.445313 18.25 24C18.25 24.554688 18.699219 25 19.25 25L21.875 25C21.429688 26.722656 19.859375 28 18 28C15.792969 28 14 26.207031 14 24C14 21.792969 15.792969 20 18 20C18.664063 20 19.324219 20.167969 19.90625 20.484375C20.390625 20.746094 20.996094 20.5625 21.261719 20.078125C21.527344 19.59375 21.34375 18.988281 20.859375 18.722656C19.988281 18.25 19 18 18 18 Z M 38.050781 21.808594C38.921875 23.539063 40 25.253906 41.148438 26.992188L12.21875 55.921875C10.089844 55.585938 8.414063 53.910156 8.078125 51.78125 Z M 42.277344 28.691406C45.269531 33.175781 48.324219 37.820313 49.003906 43.25C49.066406 43.75 49.492188 44.125 49.996094 44.125C50.5 44.125 50.925781 43.75 50.988281 43.25C51.539063 38.867188 53.636719 35 56 31.3125L56 51C56 51.183594 55.964844 51.355469 55.945313 51.53125L51.574219 47.15625C51.179688 46.765625 50.550781 46.765625 50.15625 47.15625C49.765625 47.550781 49.765625 48.179688 50.15625 48.574219L55.226563 53.640625C54.34375 55.050781 52.785156 56 51 56L50.300781 56L32.636719 38.332031L36.277344 34.691406L40.539063 38.953125C40.734375 39.148438 40.988281 39.25 41.246094 39.25C41.503906 39.25 41.757813 39.148438 41.953125 38.953125C42.34375 38.5625 42.34375 37.933594 41.953125 37.542969L37.691406 33.277344 Z M 31.222656 39.75L47.472656 56L14.96875 56 Z M 44.1875 40.1875C43.929688 40.1875 43.675781 40.28125 43.480469 40.480469C43.085938 40.871094 43.085938 41.5 43.480469 41.890625L45.332031 43.746094C45.527344 43.941406 45.78125 44.039063 46.039063 44.039063C46.296875 44.039063 46.550781 43.941406 46.746094 43.746094C47.136719 43.355469 47.136719 42.722656 46.746094 42.332031L44.890625 40.480469C44.695313 40.28125 44.441406 40.1875 44.1875 40.1875Z" fill="#FFFFFF" />
</svg>