<svg xmlns="http://www.w3.org/2000/svg" viewBox="0 0 24 24">
  <path d="M3.125 1C2.219 1 1.5030625 1.4805 1.1640625 2.3125C1.0570625 2.5695 1.0029531 2.8420469 1.0019531 3.1230469C1.0009531 4.0540469 1.6009375 4.8097188 1.9609375 5.2617188C2.0239375 5.3407187 2.080625 5.4110938 2.140625 5.4960938L2.3027344 5.7109375C2.4637344 5.9219375 2.6470781 6.16125 2.7050781 6.28125C2.7240781 6.33625 2.7492031 6.4326875 2.7832031 6.5546875C2.9402031 7.1196875 3.2332187 8.16975 3.6992188 8.96875C3.8872187 9.29075 4.1517969 9.6954687 4.3417969 9.9804688C4.2147969 10.616469 4 11.788 4 12.5C4 13.75 4.2592188 14.753875 4.8242188 15.671875C5.0332187 15.999875 5.671 17 6.75 17C7.133 17 7.7694062 16.850391 7.9414062 15.900391C8.7064063 16.887391 10 18.125 12 19C12 19 8.2507969 14.625438 7.5917969 11.898438C7.5917969 11.898437 6.874625 12.625375 6.265625 14.109375C6.083625 13.651375 6 13.135 6 12.5C6 11.873 6.2758125 10.471375 6.3828125 9.984375L6.4765625 9.5605469L6.2304688 9.203125C6.2264687 9.196125 5.7227344 8.4688906 5.4277344 7.9628906C5.0917344 7.3868906 4.8439375 6.4955781 4.7109375 6.0175781C4.6459375 5.7845781 4.594875 5.6159531 4.546875 5.5019531C4.371875 5.1229531 4.115625 4.7900937 3.890625 4.4960938L3.765625 4.3300781C3.702625 4.2390781 3.6193906 4.133625 3.5253906 4.015625C3.3423906 3.785625 3.0017188 3.3570312 3.0117188 3.0820312L3.1230469 3.0039062L3.125 3C3.92 3 4.9440781 3.5643437 5.3300781 3.7773438C5.4560781 3.8463438 5.5486563 3.8940156 5.5976562 3.9160156L5.7714844 3.9921875L6.1132812 4.0039062C6.5602813 4.0139062 7.9189063 4.0456875 8.8789062 4.4296875C10.629906 5.1296875 11.598031 5.830375 12.582031 7.109375C14.906031 10.131375 15.763484 14.044984 15.771484 14.083984L15.896484 14.648438L16.443359 14.826172C16.462359 14.833172 17.992922 15.344641 19.419922 16.681641C17.624922 17.125641 17 18 17 18C17 18 17.476 18.928 19.75 20.375C21.125 21.25 21.875 21.875 23 23C23 23 21.875688 20.499813 20.304688 18.507812C21.500687 18.124813 22.970703 17.925781 22.970703 17.925781L22.060547 16.664062C20.562547 14.587063 18.553656 13.538859 17.597656 13.130859C17.265656 11.864859 16.262969 8.614625 14.167969 5.890625C12.968969 4.331625 11.693094 3.3993125 9.6210938 2.5703125C8.3940937 2.0803125 6.9187188 2.0218594 6.2617188 2.0058594C5.6867187 1.6898594 4.409 1 3.125 1 z M 7.1875 5C7.1875 5 6.75 5 6.25 5.125L7.625 6.9980469C8 6.5000469 8 5.9179688 8 5.9179688C8 5.9179688 7.7505 5.25 7.1875 5 z" fill="#FFFFFF" />
</svg>