<svg xmlns="http://www.w3.org/2000/svg" viewBox="0 0 64 64">
  <path d="M13 0C9.140625 0 6 3.140625 6 7L6 57C6 60.859375 9.140625 64 13 64L35 64C38.859375 64 42 60.859375 42 57L42 46.328125C43.652344 44.800781 44.429688 43.023438 44.765625 42L57 42C58.652344 42 60 40.652344 60 39L60 17C60 15.347656 58.652344 14 57 14L42 14L42 7C42 3.140625 38.859375 0 35 0 Z M 13 2L35 2C37.757813 2 40 4.242188 40 7L40 8L8 8L8 7C8 4.242188 10.242188 2 13 2 Z M 19 4C18.445313 4 18 4.445313 18 5C18 5.554688 18.445313 6 19 6L21 6C21.554688 6 22 5.554688 22 5C22 4.445313 21.554688 4 21 4 Z M 25 4C24.445313 4 24 4.445313 24 5C24 5.554688 24.445313 6 25 6L29 6C29.554688 6 30 5.554688 30 5C30 4.445313 29.554688 4 29 4 Z M 8 10L40 10L40 14L31 14C29.347656 14 28 15.347656 28 17L28 39C28 40.652344 29.347656 42 31 42L36.214844 42C36.3125 42.84375 36.269531 44.636719 35.070313 47.628906C34.9375 47.960938 34.992188 48.335938 35.214844 48.617188C35.40625 48.859375 35.695313 49 36 49C36.046875 49 36.09375 48.996094 36.140625 48.988281C37.675781 48.769531 38.945313 48.324219 40 47.753906L40 52L8 52 Z M 31 16L57 16C57.550781 16 58 16.449219 58 17L58 39C58 39.550781 57.550781 40 57 40L44 40C43.515625 40 43.101563 40.351563 43.015625 40.828125C42.980469 41.023438 42.199219 45.164063 37.550781 46.628906C38.808594 42.589844 38.003906 40.769531 37.894531 40.550781C37.722656 40.214844 37.378906 40 37 40L31 40C30.449219 40 30 39.550781 30 39L30 17C30 16.449219 30.449219 16 31 16 Z M 36 26C34.894531 26 34 26.894531 34 28C34 29.105469 34.894531 30 36 30C37.105469 30 38 29.105469 38 28C38 26.894531 37.105469 26 36 26 Z M 44 26C42.894531 26 42 26.894531 42 28C42 29.105469 42.894531 30 44 30C45.105469 30 46 29.105469 46 28C46 26.894531 45.105469 26 44 26 Z M 52 26C50.894531 26 50 26.894531 50 28C50 29.105469 50.894531 30 52 30C53.105469 30 54 29.105469 54 28C54 26.894531 53.105469 26 52 26 Z M 12 44C11.445313 44 11 44.445313 11 45L11 47C11 47.554688 11.445313 48 12 48C12.554688 48 13 47.554688 13 47L13 45C13 44.445313 12.554688 44 12 44 Z M 17 44C16.445313 44 16 44.445313 16 45L16 47C16 47.554688 16.445313 48 17 48C17.554688 48 18 47.554688 18 47L18 45C18 44.445313 17.554688 44 17 44 Z M 22 44C21.445313 44 21 44.445313 21 45L21 47C21 47.554688 21.445313 48 22 48C22.554688 48 23 47.554688 23 47L23 45C23 44.445313 22.554688 44 22 44 Z M 27 44C26.445313 44 26 44.445313 26 45L26 47C26 47.554688 26.445313 48 27 48C27.554688 48 28 47.554688 28 47L28 45C28 44.445313 27.554688 44 27 44 Z M 32 44C31.445313 44 31 44.445313 31 45L31 47C31 47.554688 31.445313 48 32 48C32.554688 48 33 47.554688 33 47L33 45C33 44.445313 32.554688 44 32 44 Z M 8 54L40 54L40 57C40 59.757813 37.757813 62 35 62L13 62C10.242188 62 8 59.757813 8 57 Z M 24 56C22.894531 56 22 56.894531 22 58C22 59.105469 22.894531 60 24 60C25.105469 60 26 59.105469 26 58C26 56.894531 25.105469 56 24 56Z" fill="#FFFFFF" />
</svg>