<svg xmlns="http://www.w3.org/2000/svg" viewBox="0 0 48 48">
  <path d="M12.5 6C9.4802259 6 7 8.4802259 7 11.5L7 14.5C7 16.084839 7.7052607 17.492917 8.7910156 18.5C7.7052607 19.507083 7 20.915161 7 22.5L7 25.5C7 27.070005 7.6740852 28.490503 8.7421875 29.496094C7.6730004 30.500057 7 31.920973 7 33.5L7 36.5C7 39.533 9.468 42 12.5 42L12.703125 42L13.257812 39L12.5 39C11.121 39 10 37.878 10 36.5L10 33.5C10 32.122 11.121 31 12.5 31L25.609375 31L25.703125 30.570312C26.030125 29.081312 27.373484 28 28.896484 28L12.5 28C11.101774 28 10 26.898226 10 25.5L10 22.5C10 21.101774 11.101774 20 12.5 20L35.5 20C36.898226 20 38 21.101774 38 22.5L38 25.5C38 26.898226 36.898226 28 35.5 28L28.896484 28C29.900484 28 30.834984 28.451281 31.458984 29.238281C31.866984 29.752281 32.086672 30.365 32.138672 31L35.5 31C36.708 31 37.717219 31.86 37.949219 33L40.974609 33C40.850088 31.622387 40.209455 30.394819 39.255859 29.498047C40.325129 28.492351 41 27.070988 41 25.5L41 22.5C41 20.915161 40.294739 19.507083 39.208984 18.5C40.294739 17.492917 41 16.084839 41 14.5L41 11.5C41 8.4802259 38.519774 6 35.5 6L12.5 6 z M 12.5 9L35.5 9C36.898226 9 38 10.101774 38 11.5L38 14.5C38 15.898226 36.898226 17 35.5 17L12.5 17C11.101774 17 10 15.898226 10 14.5L10 11.5C10 10.101774 11.101774 9 12.5 9 z M 28.896484 30C28.300484 30 27.78425 30.415047 27.65625 30.998047L25.365234 41.458984C25.192234 42.250984 25.794469 43 26.605469 43L26.623047 43C27.223047 43 27.741234 42.579187 27.865234 41.992188L28.919922 37L31.017578 37C31.686578 37 32.127984 37.111031 32.333984 37.332031C32.538984 37.555031 32.583844 37.975984 32.464844 38.583984L31.841797 41.460938C31.669797 42.251938 32.271078 43 33.080078 43L33.148438 43C33.745438 43 34.263625 42.584 34.390625 42L35.210938 38.222656C35.433937 37.077656 35.265938 36.236563 34.710938 35.726562C34.145938 35.208563 33.149062 35 31.664062 35L29.324219 35L30.132812 31.560547C30.319813 30.763547 29.715484 30 28.896484 30 z M 17.085938 35C16.473937 35 15.946937 35.437062 15.835938 36.039062L14.275391 44.5C14.131391 45.28 14.731391 46 15.525391 46L15.580078 46C16.196078 46 16.724078 45.556219 16.830078 44.949219L17.173828 43L18.818359 43C22.264359 43 24.140797 42.202141 24.841797 39.244141C25.444797 36.703141 23.903328 35 21.361328 35L17.085938 35 z M 38.085938 35C37.473938 35 36.946938 35.437062 36.835938 36.039062L35.275391 44.5C35.131391 45.28 35.731391 46 36.525391 46L36.580078 46C37.196078 46 37.724078 45.556219 37.830078 44.949219L38.173828 43L39.818359 43C43.264359 43 45.140797 42.202141 45.841797 39.244141C46.444797 36.703141 44.903328 35 42.361328 35L38.085938 35 z M 18.300781 37L20.361328 37C22.069328 37 22.428844 37.769953 22.339844 38.626953C22.110844 40.832953 20.735859 41 19.255859 41L17.546875 41L18.300781 37 z M 39.300781 37L41.361328 37C43.069328 37 43.428844 37.769953 43.339844 38.626953C43.110844 40.832953 41.735859 41 40.255859 41L38.546875 41L39.300781 37 z" fill="#FFFFFF" />
</svg>