<svg xmlns="http://www.w3.org/2000/svg" viewBox="0 0 64 64">
  <path d="M3 6C1.347656 6 0 7.347656 0 9L0 45C0 46.652344 1.347656 48 3 48L26 48L26 52L23.65625 52C22.320313 52 21.066406 52.519531 20.121094 53.464844L17.292969 56.292969C17.007813 56.578125 16.921875 57.007813 17.078125 57.382813C17.230469 57.753906 17.597656 58 18 58L46 58C46.402344 58 46.769531 57.753906 46.921875 57.382813C47.078125 57.007813 46.992188 56.578125 46.707031 56.292969L43.878906 53.464844C42.933594 52.519531 41.679688 52 40.34375 52L38 52L38 48L61 48C62.652344 48 64 46.652344 64 45L64 9C64 7.347656 62.652344 6 61 6 Z M 3 8L61 8C61.550781 8 62 8.449219 62 9L62 45C62 45.550781 61.550781 46 61 46L3 46C2.449219 46 2 45.550781 2 45L2 9C2 8.449219 2.449219 8 3 8 Z M 9 12C7.347656 12 6 13.347656 6 15L6 35C6 36.652344 7.347656 38 9 38L19 38C20.652344 38 22 36.652344 22 35L22 15C22 13.347656 20.652344 12 19 12 Z M 29 12C27.347656 12 26 13.347656 26 15L26 35C26 36.652344 27.347656 38 29 38L55 38C56.652344 38 58 36.652344 58 35L58 15C58 13.347656 56.652344 12 55 12 Z M 9 14L19 14C19.550781 14 20 14.449219 20 15L20 32L8 32L8 15C8 14.449219 8.449219 14 9 14 Z M 29 14L52 14L52 20C52 20.554688 52.449219 21 53 21C53.550781 21 54 20.554688 54 20L54 14L55 14C55.550781 14 56 14.449219 56 15L56 35C56 35.550781 55.550781 36 55 36L54 36L54 30C54 29.445313 53.550781 29 53 29C52.449219 29 52 29.445313 52 30L52 36L29 36C28.449219 36 28 35.550781 28 35L28 15C28 14.449219 28.449219 14 29 14 Z M 13 15C12.449219 15 12 15.445313 12 16C12 16.554688 12.449219 17 13 17L15 17C15.550781 17 16 16.554688 16 16C16 15.445313 15.550781 15 15 15 Z M 30 23C29.449219 23 29 23.445313 29 24L29 26C29 26.554688 29.449219 27 30 27C30.550781 27 31 26.554688 31 26L31 24C31 23.445313 30.550781 23 30 23 Z M 53 23C52.449219 23 52 23.445313 52 24L52 26C52 26.554688 52.449219 27 53 27C53.550781 27 54 26.554688 54 26L54 24C54 23.445313 53.550781 23 53 23 Z M 8 34L20 34L20 35C20 35.550781 19.550781 36 19 36L9 36C8.449219 36 8 35.550781 8 35 Z M 7 40C6.449219 40 6 40.445313 6 41L6 43C6 43.554688 6.449219 44 7 44C7.550781 44 8 43.554688 8 43L8 41C8 40.445313 7.550781 40 7 40 Z M 12 40C11.449219 40 11 40.445313 11 41L11 43C11 43.554688 11.449219 44 12 44C12.550781 44 13 43.554688 13 43L13 41C13 40.445313 12.550781 40 12 40 Z M 17 40C16.449219 40 16 40.445313 16 41L16 43C16 43.554688 16.449219 44 17 44C17.550781 44 18 43.554688 18 43L18 41C18 40.445313 17.550781 40 17 40 Z M 22 40C21.449219 40 21 40.445313 21 41L21 43C21 43.554688 21.449219 44 22 44C22.550781 44 23 43.554688 23 43L23 41C23 40.445313 22.550781 40 22 40 Z M 27 40C26.449219 40 26 40.445313 26 41L26 43C26 43.554688 26.449219 44 27 44C27.550781 44 28 43.554688 28 43L28 41C28 40.445313 27.550781 40 27 40 Z M 32 40C31.449219 40 31 40.445313 31 41L31 43C31 43.554688 31.449219 44 32 44C32.550781 44 33 43.554688 33 43L33 41C33 40.445313 32.550781 40 32 40 Z M 37 40C36.449219 40 36 40.445313 36 41L36 43C36 43.554688 36.449219 44 37 44C37.550781 44 38 43.554688 38 43L38 41C38 40.445313 37.550781 40 37 40 Z M 42 40C41.449219 40 41 40.445313 41 41L41 43C41 43.554688 41.449219 44 42 44C42.550781 44 43 43.554688 43 43L43 41C43 40.445313 42.550781 40 42 40 Z M 47 40C46.449219 40 46 40.445313 46 41L46 43C46 43.554688 46.449219 44 47 44C47.550781 44 48 43.554688 48 43L48 41C48 40.445313 47.550781 40 47 40 Z M 52 40C51.449219 40 51 40.445313 51 41L51 43C51 43.554688 51.449219 44 52 44C52.550781 44 53 43.554688 53 43L53 41C53 40.445313 52.550781 40 52 40 Z M 57 40C56.449219 40 56 40.445313 56 41L56 43C56 43.554688 56.449219 44 57 44C57.550781 44 58 43.554688 58 43L58 41C58 40.445313 57.550781 40 57 40 Z M 28 48L36 48L36 52L28 52 Z M 23.65625 54L40.34375 54C41.132813 54 41.90625 54.320313 42.464844 54.878906L43.585938 56L20.414063 56L21.535156 54.878906C22.09375 54.320313 22.867188 54 23.65625 54Z" fill="#FFFFFF" />
</svg>