<svg xmlns="http://www.w3.org/2000/svg" viewBox="0 0 64 64">
  <path d="M29.5625 2C28.179688 2 26.984375 2.933594 26.652344 4.273438L25.765625 7.789063C23.492188 8.375 21.3125 9.277344 19.292969 10.480469L16.175781 8.609375C14.992188 7.902344 13.488281 8.089844 12.511719 9.0625L9.0625 12.511719C8.085938 13.484375 7.902344 14.992188 8.609375 16.175781L10.472656 19.285156C9.277344 21.308594 8.375 23.488281 7.796875 25.769531L4.273438 26.652344C2.933594 26.984375 2 28.183594 2 29.5625L2 34.4375C2 35.820313 2.933594 37.015625 4.273438 37.347656L7.789063 38.234375C8.375 40.511719 9.277344 42.691406 10.480469 44.707031L8.609375 47.824219C7.902344 49.007813 8.085938 50.515625 9.0625 51.488281L12.511719 54.9375C13.488281 55.914063 14.992188 56.097656 16.175781 55.390625L19.289063 53.527344C21.3125 54.722656 23.492188 55.628906 25.769531 56.203125L26.652344 59.730469C26.984375 61.066406 28.183594 62 29.5625 62L34.4375 62C35.820313 62 37.015625 61.066406 37.347656 59.730469L38.234375 56.207031C40.507813 55.625 42.6875 54.722656 44.707031 53.519531L47.824219 55.390625C49.007813 56.097656 50.511719 55.910156 51.488281 54.9375L54.9375 51.488281C55.914063 50.515625 56.097656 49.007813 55.390625 47.824219L53.527344 44.714844C54.722656 42.691406 55.625 40.511719 56.203125 38.230469L59.730469 37.347656C61.066406 37.015625 62 35.816406 62 34.4375L62 29.5625C62 28.183594 61.066406 26.984375 59.730469 26.652344L56.207031 25.765625C55.625 23.488281 54.722656 21.308594 53.519531 19.292969L55.390625 16.175781C56.097656 14.992188 55.914063 13.484375 54.9375 12.511719L51.488281 9.0625C50.511719 8.085938 49.007813 7.902344 47.824219 8.609375L44.710938 10.472656C42.6875 9.277344 40.507813 8.371094 38.230469 7.796875L37.347656 4.273438C37.011719 2.933594 35.816406 2 34.4375 2 Z M 29.5625 4L34.4375 4C34.898438 4 35.296875 4.3125 35.40625 4.757813L36.289063 8.28125C36.464844 8.992188 37.019531 9.546875 37.734375 9.726563C39.828125 10.265625 41.832031 11.09375 43.691406 12.195313C44.328125 12.570313 45.109375 12.574219 45.738281 12.195313L48.855469 10.328125C49.25 10.089844 49.75 10.152344 50.074219 10.476563L53.523438 13.921875C53.847656 14.25 53.910156 14.753906 53.671875 15.144531L51.804688 18.261719C51.429688 18.886719 51.429688 19.671875 51.804688 20.308594C52.90625 22.164063 53.734375 24.167969 54.269531 26.261719C54.453125 26.976563 55.007813 27.53125 55.71875 27.707031L59.242188 28.589844C59.6875 28.703125 60 29.101563 60 29.5625L60 34.4375C60 34.898438 59.6875 35.296875 59.242188 35.40625L55.714844 36.289063C55.007813 36.46875 54.453125 37.023438 54.269531 37.734375C53.734375 39.832031 52.902344 41.835938 51.804688 43.691406C51.425781 44.328125 51.425781 45.109375 51.804688 45.734375L53.671875 48.855469C53.910156 49.246094 53.847656 49.75 53.523438 50.074219L50.074219 53.523438C49.75 53.847656 49.246094 53.910156 48.855469 53.671875L45.738281 51.804688C45.113281 51.425781 44.328125 51.425781 43.691406 51.804688C41.832031 52.90625 39.828125 53.734375 37.738281 54.269531C37.023438 54.453125 36.46875 55.007813 36.289063 55.71875L35.40625 59.238281C35.296875 59.6875 34.898438 60 34.4375 60L29.5625 60C29.101563 60 28.703125 59.6875 28.59375 59.242188L27.710938 55.71875C27.53125 55.007813 26.976563 54.453125 26.265625 54.269531C24.171875 53.734375 22.167969 52.90625 20.308594 51.804688C19.988281 51.617188 19.636719 51.523438 19.28125 51.523438C18.925781 51.523438 18.574219 51.617188 18.261719 51.804688L15.144531 53.671875C14.753906 53.910156 14.25 53.847656 13.921875 53.523438L10.476563 50.078125C10.152344 49.75 10.089844 49.246094 10.324219 48.855469L12.191406 45.738281C12.570313 45.109375 12.570313 44.328125 12.191406 43.691406C11.09375 41.835938 10.261719 39.832031 9.726563 37.738281C9.542969 37.023438 8.992188 36.46875 8.28125 36.292969L4.757813 35.410156C4.3125 35.296875 4 34.898438 4 34.4375L4 29.5625C4 29.101563 4.3125 28.703125 4.757813 28.589844L8.285156 27.707031C8.992188 27.53125 9.546875 26.976563 9.726563 26.265625C10.265625 24.167969 11.097656 22.164063 12.195313 20.308594C12.570313 19.671875 12.570313 18.886719 12.195313 18.261719L10.328125 15.144531C10.089844 14.753906 10.152344 14.25 10.476563 13.921875L13.925781 10.476563C14.25 10.152344 14.753906 10.089844 15.144531 10.328125L18.261719 12.195313C18.886719 12.570313 19.671875 12.574219 20.308594 12.195313C22.167969 11.09375 24.171875 10.265625 26.261719 9.726563C26.976563 9.546875 27.53125 8.992188 27.707031 8.28125L28.589844 4.757813C28.703125 4.3125 29.101563 4 29.5625 4 Z M 32 11C31.449219 11 31 11.445313 31 12L31 14C31 14.554688 31.449219 15 32 15C32.550781 15 33 14.554688 33 14L33 12C33 11.445313 32.550781 11 32 11 Z M 26.960938 11.6875C26.832031 11.671875 26.699219 11.679688 26.5625 11.71875C26.03125 11.859375 25.714844 12.40625 25.859375 12.941406L26.375 14.875C26.496094 15.320313 26.898438 15.613281 27.34375 15.613281C27.425781 15.613281 27.511719 15.601563 27.597656 15.578125C28.132813 15.4375 28.449219 14.890625 28.308594 14.355469L27.789063 12.421875C27.683594 12.023438 27.347656 11.742188 26.960938 11.6875 Z M 37.039063 11.6875C36.652344 11.742188 36.316406 12.019531 36.210938 12.421875L35.691406 14.355469C35.550781 14.886719 35.867188 15.4375 36.402344 15.578125C36.488281 15.601563 36.574219 15.613281 36.65625 15.613281C37.097656 15.613281 37.503906 15.316406 37.625 14.871094L38.140625 12.9375C38.285156 12.40625 37.96875 11.859375 37.4375 11.714844C37.300781 11.679688 37.167969 11.671875 37.039063 11.6875 Z M 21.875 13.6875C21.746094 13.703125 21.621094 13.746094 21.5 13.8125C21.019531 14.089844 20.859375 14.703125 21.136719 15.179688L22.136719 16.910156C22.320313 17.230469 22.65625 17.410156 23 17.410156C23.171875 17.410156 23.34375 17.367188 23.5 17.277344C23.980469 17 24.140625 16.386719 23.863281 15.910156L22.863281 14.179688C22.660156 13.820313 22.261719 13.640625 21.875 13.6875 Z M 42.125 13.6875C41.734375 13.640625 41.339844 13.820313 41.136719 14.179688L40.136719 15.910156C39.859375 16.390625 40.019531 17 40.5 17.277344C40.65625 17.367188 40.828125 17.410156 41 17.410156C41.34375 17.410156 41.679688 17.230469 41.863281 16.910156L42.863281 15.179688C43.140625 14.699219 42.980469 14.089844 42.5 13.8125C42.378906 13.746094 42.253906 13.703125 42.125 13.6875 Z M 21.390625 21.96875C20.949219 21.96875 20.558594 22.261719 20.433594 22.683594L15.03125 40.683594C14.871094 41.210938 15.171875 41.769531 15.703125 41.925781C16.230469 42.082031 16.789063 41.785156 16.949219 41.257813L18.53125 35.96875L24.246094 35.96875L25.828125 41.257813C25.960938 41.691406 26.355469 41.96875 26.785156 41.96875C26.882813 41.96875 26.980469 41.957031 27.078125 41.925781C27.605469 41.769531 27.90625 41.210938 27.746094 40.683594L22.347656 22.683594C22.21875 22.261719 21.828125 21.96875 21.390625 21.96875 Z M 31 22C30.449219 22 30 22.445313 30 23L30 41C30 41.554688 30.449219 42 31 42C31.550781 42 32 41.554688 32 41L32 34L36 34C38.207031 34 40 32.207031 40 30L40 26C40 23.792969 38.207031 22 36 22 Z M 43 22C42.449219 22 42 22.445313 42 23C42 23.554688 42.449219 24 43 24L44 24L44 40L43 40C42.449219 40 42 40.445313 42 41C42 41.554688 42.449219 42 43 42L47 42C47.550781 42 48 41.554688 48 41C48 40.445313 47.550781 40 47 40L46 40L46 24L47 24C47.550781 24 48 23.554688 48 23C48 22.445313 47.550781 22 47 22 Z M 32 24L36 24C37.101563 24 38 24.898438 38 26L38 30C38 31.101563 37.101563 32 36 32L32 32 Z M 21.390625 26.449219L23.644531 33.96875L19.132813 33.96875 Z M 23.125 46.59375C22.734375 46.546875 22.339844 46.730469 22.136719 47.089844L21.136719 48.820313C20.859375 49.300781 21.019531 49.910156 21.5 50.1875C21.65625 50.277344 21.828125 50.320313 22 50.320313C22.34375 50.320313 22.679688 50.140625 22.863281 49.820313L23.863281 48.089844C24.140625 47.609375 23.980469 47 23.5 46.722656C23.378906 46.652344 23.25 46.613281 23.125 46.59375 Z M 40.875 46.59375C40.75 46.613281 40.621094 46.652344 40.5 46.722656C40.019531 47 39.859375 47.613281 40.136719 48.089844L41.136719 49.820313C41.320313 50.140625 41.65625 50.320313 42 50.320313C42.171875 50.320313 42.34375 50.277344 42.5 50.1875C42.980469 49.910156 43.140625 49.296875 42.863281 48.820313L41.863281 47.089844C41.660156 46.730469 41.265625 46.546875 40.875 46.59375 Z M 36.796875 48.394531C36.667969 48.375 36.535156 48.386719 36.402344 48.421875C35.867188 48.566406 35.550781 49.113281 35.691406 49.644531L36.210938 51.578125C36.332031 52.023438 36.734375 52.316406 37.175781 52.316406C37.261719 52.316406 37.347656 52.308594 37.4375 52.285156C37.96875 52.140625 38.285156 51.59375 38.140625 51.0625L37.625 49.128906C37.519531 48.726563 37.183594 48.449219 36.796875 48.394531 Z M 27.203125 48.394531C26.816406 48.449219 26.480469 48.730469 26.375 49.128906L25.859375 51.0625C25.714844 51.59375 26.03125 52.140625 26.5625 52.285156C26.652344 52.308594 26.738281 52.316406 26.824219 52.316406C27.261719 52.316406 27.667969 52.023438 27.785156 51.578125L28.308594 49.644531C28.449219 49.113281 28.132813 48.5625 27.597656 48.421875C27.464844 48.386719 27.332031 48.378906 27.203125 48.394531 Z M 32 49C31.449219 49 31 49.445313 31 50L31 52C31 52.554688 31.449219 53 32 53C32.550781 53 33 52.554688 33 52L33 50C33 49.445313 32.550781 49 32 49Z" fill="#FFFFFF" />
</svg>