<svg xmlns="http://www.w3.org/2000/svg" viewBox="0 0 64 64">
  <path d="M11 2C7.140625 2 4 5.140625 4 9L4 51C4 54.859375 7.140625 58 11 58L53 58C56.859375 58 60 54.859375 60 51L60 9C60 5.140625 56.859375 2 53 2 Z M 11 4L53 4C55.757813 4 58 6.242188 58 9L58 51C58 53.757813 55.757813 56 53 56L11 56C8.242188 56 6 53.757813 6 51L6 9C6 6.242188 8.242188 4 11 4 Z M 9 8C8.445313 8 8 8.445313 8 9L8 11C8 11.554688 8.445313 12 9 12C9.554688 12 10 11.554688 10 11L10 9C10 8.445313 9.554688 8 9 8 Z M 14 8C13.445313 8 13 8.445313 13 9L13 11C13 11.554688 13.445313 12 14 12C14.554688 12 15 11.554688 15 11L15 9C15 8.445313 14.554688 8 14 8 Z M 19 8C18.445313 8 18 8.445313 18 9L18 11C18 11.554688 18.445313 12 19 12C19.554688 12 20 11.554688 20 11L20 9C20 8.445313 19.554688 8 19 8 Z M 24 8C23.445313 8 23 8.445313 23 9L23 11C23 11.554688 23.445313 12 24 12C24.554688 12 25 11.554688 25 11L25 9C25 8.445313 24.554688 8 24 8 Z M 29 8C28.445313 8 28 8.445313 28 9L28 11C28 11.554688 28.445313 12 29 12C29.554688 12 30 11.554688 30 11L30 9C30 8.445313 29.554688 8 29 8 Z M 34 8C33.445313 8 33 8.445313 33 9L33 11C33 11.554688 33.445313 12 34 12C34.554688 12 35 11.554688 35 11L35 9C35 8.445313 34.554688 8 34 8 Z M 39 8C38.445313 8 38 8.445313 38 9L38 11C38 11.554688 38.445313 12 39 12C39.554688 12 40 11.554688 40 11L40 9C40 8.445313 39.554688 8 39 8 Z M 44 8C43.445313 8 43 8.445313 43 9L43 11C43 11.554688 43.445313 12 44 12C44.554688 12 45 11.554688 45 11L45 9C45 8.445313 44.554688 8 44 8 Z M 49 8C48.445313 8 48 8.445313 48 9L48 11C48 11.554688 48.445313 12 49 12C49.554688 12 50 11.554688 50 11L50 9C50 8.445313 49.554688 8 49 8 Z M 54 8C53.445313 8 53 8.445313 53 9L53 11C53 11.554688 53.445313 12 54 12C54.554688 12 55 11.554688 55 11L55 9C55 8.445313 54.554688 8 54 8 Z M 20.707031 22C18.109375 22 16 24.109375 16 26.707031C16 28.503906 16.996094 30.117188 18.605469 30.921875L22.5 32.871094C23.425781 33.332031 24 34.261719 24 35.292969C24 36.785156 22.785156 38 21.292969 38L20 38C18.898438 38 18 37.101563 18 36L18 35C18 34.445313 17.554688 34 17 34C16.445313 34 16 34.445313 16 35L16 36C16 38.207031 17.792969 40 20 40L21.292969 40C23.890625 40 26 37.890625 26 35.292969C26 33.5 25.003906 31.882813 23.394531 31.078125L19.496094 29.128906C18.570313 28.667969 18 27.738281 18 26.707031C18 25.214844 19.214844 24 20.707031 24L22 24C23.101563 24 24 24.898438 24 26L24 27C24 27.554688 24.445313 28 25 28C25.554688 28 26 27.554688 26 27L26 26C26 23.792969 24.207031 22 22 22 Z M 33 22C30.242188 22 28 24.242188 28 27L28 35C28 37.757813 30.242188 40 33 40C33.394531 40 33.773438 39.945313 34.140625 39.859375C34.511719 41.09375 35.644531 42 37 42C37.554688 42 38 41.554688 38 41C38 40.445313 37.554688 40 37 40C36.449219 40 36 39.550781 36 39C36 38.992188 35.996094 38.988281 35.996094 38.980469C37.207031 38.066406 38 36.628906 38 35L38 27C38 24.242188 35.757813 22 33 22 Z M 41 22C40.445313 22 40 22.445313 40 23L40 39C40 39.554688 40.445313 40 41 40L49 40C49.554688 40 50 39.554688 50 39C50 38.445313 49.554688 38 49 38L42 38L42 23C42 22.445313 41.554688 22 41 22 Z M 33 24C34.652344 24 36 25.347656 36 27L36 35C36 36.652344 34.652344 38 33 38C31.347656 38 30 36.652344 30 35L30 27C30 25.347656 31.347656 24 33 24Z" fill="#FFFFFF" />
</svg>