<svg xmlns="http://www.w3.org/2000/svg" viewBox="0 0 24 24">
  <path d="M5 3C4.4777778 3 3.9453899 3.1913289 3.5683594 3.5683594C3.1913289 3.9453899 3 4.4777778 3 5L3 14C3 14.522222 3.1913289 15.05461 3.5683594 15.431641C3.9453899 15.808671 4.4777778 16 5 16L8 16L8 19C8 20.1 8.9 21 10 21L19 21C20.1 21 21 20.1 21 19L21 10C21 8.9 20.1 8 19 8L16 8L16 5C16 4.4777778 15.808671 3.9453899 15.431641 3.5683594C15.05461 3.1913289 14.522222 3 14 3L5 3 z M 20 3L18 5L20 7L20 3 z M 5 5L14 5L14 9L11 12L9 14L5 14L5 5 z M 11 12L11 11C10.724607 11 10.470976 10.974116 10.230469 10.933594C10.240464 10.926245 10.251769 10.92149 10.261719 10.914062C11.136726 10.260889 11.82349 9.2689736 11.96875 8L12 8L12 7.5L12 7L10 7L10 6L9 6L9 7L7 7L7 8L10.960938 8C10.829049 8.9270716 10.33606 9.6096966 9.6640625 10.111328C9.4647364 10.260121 9.2495926 10.390192 9.0253906 10.501953C8.3652679 10.106834 8 9.5371456 8 9L7 9C7 9.7194444 7.3357501 10.370308 7.8867188 10.886719C7.5801847 10.952772 7.2781426 11 7 11L7 12C7.6397853 12 8.328822 11.856535 8.9941406 11.595703C9.5784432 11.845526 10.252933 12 11 12 z M 14.099609 11.099609L15.400391 11.099609L17.900391 17.800781L16.400391 17.800781L16 16.400391L13.599609 16.400391L13.099609 17.800781L11.599609 17.800781L14.099609 11.099609 z M 14.800781 12.800781L13.900391 15.300781L15.599609 15.300781L14.800781 12.800781 z M 4 17L4 21L6 19L4 17 z" fill="#FFFFFF" />
</svg>